<?xml version="1.0" standalone="no"?>
<!DOCTYPE svg PUBLIC "-//W3C//DTD SVG 20010904//EN"
 "http://www.w3.org/TR/2001/REC-SVG-20010904/DTD/svg10.dtd">
<svg version="1.0" xmlns="http://www.w3.org/2000/svg"
 width="64.000000pt" height="64.000000pt" viewBox="0 0 64.000000 64.000000"
 preserveAspectRatio="xMidYMid meet">

<g transform="translate(0.000000,64.000000) scale(0.100000,-0.100000)"
fill="#000000" stroke="none">
<path d="M287 601 c-21 -11 -55 -35 -75 -53 -21 -18 -59 -46 -85 -63 -76 -47
-126 -175 -96 -246 38 -91 56 -115 115 -151 32 -20 66 -37 75 -37 9 -1 30 -8
45 -16 16 -8 43 -15 61 -15 34 0 211 78 229 101 9 13 53 117 68 162 6 17 -18
87 -56 163 -11 23 -37 51 -61 67 -23 15 -51 32 -62 39 -11 7 -30 23 -42 36
-31 31 -71 36 -116 13z m102 -23 l20 -21 -39 -30 c-38 -29 -43 -47 -15 -47 7
0 15 -6 18 -12 6 -19 -4 -39 -16 -31 -6 4 -8 0 -4 -10 9 -25 -10 -30 -26 -7
-12 18 -15 18 -20 6 -4 -9 -1 -15 6 -13 7 1 11 -4 9 -12 -1 -7 2 -19 9 -27 9
-11 8 -15 -4 -20 -21 -8 -9 -44 14 -44 20 0 25 25 9 50 -17 26 35 90 61 74 15
-9 10 -44 -6 -44 -8 0 -15 -4 -15 -10 0 -5 11 -10 24 -10 29 0 44 -19 25 -31
-11 -7 -11 -9 3 -9 9 0 19 -6 21 -12 3 -7 6 0 6 15 1 16 -7 36 -16 45 -16 16
-15 17 1 20 10 2 19 2 22 0 2 -3 9 -40 14 -83 6 -44 15 -84 20 -89 12 -12 13
-29 2 -22 -5 3 -42 -13 -83 -34 -41 -22 -82 -40 -91 -40 -10 0 -18 -7 -18 -16
0 -17 -61 26 -112 78 -34 36 -70 36 -97 1 -24 -30 -24 -30 -54 28 -20 40 -21
51 -12 94 20 96 40 127 101 160 31 17 67 43 81 59 28 33 87 66 120 66 12 0 31
-10 42 -22z m68 -62 c15 -12 38 -29 51 -35 19 -10 21 -15 11 -27 -6 -8 -15
-14 -19 -14 -16 0 -46 36 -42 53 2 9 -1 17 -5 17 -14 0 -50 29 -36 30 6 0 24
-11 40 -24z m-47 -12 c0 -8 -5 -12 -10 -9 -6 4 -8 11 -5 16 9 14 15 11 15 -7z
m170 -138 c25 -73 25 -86 1 -86 -15 0 -21 10 -26 40 -4 26 -12 40 -22 40 -12
0 -13 3 -3 15 6 8 9 19 5 25 -10 16 3 46 15 34 5 -5 19 -36 30 -68z m-16 -170
c-14 -32 -28 -55 -31 -53 -2 3 -1 25 2 50 5 32 13 48 28 55 12 5 23 9 25 7 1
-1 -9 -28 -24 -59z m-400 -11 c-4 -8 -8 -15 -10 -15 -2 0 -4 7 -4 15 0 8 4 15
10 15 5 0 7 -7 4 -15z m42 -71 c16 -4 35 -13 42 -21 19 -19 86 -16 140 6 48
20 132 34 132 23 0 -12 -102 -55 -170 -72 -35 -9 -111 10 -182 46 -38 20 -48
39 -16 31 14 -4 38 -9 54 -13z"/>
<path d="M233 483 c-12 -2 -27 -11 -35 -20 -11 -14 -9 -15 22 -10 19 4 52 10
72 13 21 4 36 10 33 14 -5 7 -57 9 -92 3z"/>
<path d="M135 378 c-18 -62 -18 -61 -3 -56 6 2 17 24 24 49 16 53 17 59 4 59
-5 0 -16 -23 -25 -52z"/>
<path d="M65 320 c-3 -5 1 -10 9 -10 9 0 16 5 16 10 0 6 -4 10 -9 10 -6 0 -13
-4 -16 -10z"/>
<path d="M440 272 c0 -11 7 -18 20 -18 24 0 25 3 6 22 -19 19 -26 18 -26 -4z"/>
</g>
</svg>
